<svg width="31" height="31" fill="none" xmlns="http://www.w3.org/2000/svg">
    <rect x="5" width="26" height="26" rx="2" fill="#D5D5FF"/>
    <path fill-rule="evenodd" clip-rule="evenodd" d="M12.79 5.55L25.105 4V18.21c-.037 1.298-1.41 2.843-3.1 2.843-1.713 0-2.584-1.06-2.584-2.369 0-1.308.871-2.368 2.584-2.368.427 0 .835.033 1.206.104v-6.153l-8.527 1.073v7.818c-.037 1.297-1.41 2.842-3.1 2.842C9.87 22 9 20.94 9 19.632c0-1.309.871-2.369 2.584-2.369.427 0 .835.034 1.206.104V5.55z" fill="#181A2D"/>
    <path d="M2 5H0v22a4 4 0 004 4h22v-2H5a3 3 0 01-3-3V5z" fill="#D5D5FF"/>
</svg>
